<svg width="103" height="100" viewBox="0 0 103 100" fill="none" xmlns="http://www.w3.org/2000/svg">
<path fill-rule="evenodd" clip-rule="evenodd" d="M51.0837 0C22.8357 0 0 22.9166 0 51.2675C0 73.9299 14.6316 93.1132 34.9296 99.9027C37.4674 100.413 38.3969 98.7996 38.3969 97.4423C38.3969 96.2538 38.3133 92.1798 38.3133 87.9351C24.103 90.9913 21.1439 81.8236 21.1439 81.8236C18.8602 75.882 15.4765 74.3549 15.4765 74.3549C10.8255 71.2143 15.8153 71.2143 15.8153 71.2143C20.9745 71.5539 23.6817 76.4768 23.6817 76.4768C28.248 84.2851 35.6061 82.0788 38.5663 80.7205C38.9888 77.4101 40.3429 75.1184 41.7806 73.8455C30.4469 72.657 18.5225 68.2435 18.5225 48.5508C18.5225 42.9488 20.551 38.3655 23.7653 34.8009C23.2582 33.528 21.4816 28.2645 24.2735 21.2197C24.2735 21.2197 28.5867 19.8614 38.3122 26.4822C42.4761 25.36 46.7702 24.7891 51.0837 24.7843C55.397 24.7843 59.7939 25.3791 63.8541 26.4822C73.5806 19.8614 77.8939 21.2197 77.8939 21.2197C80.6858 28.2645 78.9082 33.528 78.401 34.8009C81.7 38.3655 83.6449 42.9488 83.6449 48.5508C83.6449 68.2435 71.7204 72.5716 60.302 73.8455C62.1633 75.458 63.7694 78.5132 63.7694 83.3517C63.7694 90.2267 63.6857 95.7444 63.6857 97.4413C63.6857 98.7996 64.6164 100.413 67.1531 99.9037C87.451 93.1121 102.083 73.9299 102.083 51.2675C102.166 22.9166 79.247 0 51.0837 0Z" fill="white"/>
</svg>
