<svg width="100" height="100" viewBox="0 0 100 100" fill="none" xmlns="http://www.w3.org/2000/svg">
<path fill-rule="evenodd" clip-rule="evenodd" d="M88.8889 100H11.1111C4.97461 100 0 95.0254 0 88.8889V11.1111C0 4.97461 4.97461 0 11.1111 0H88.8889C95.0254 0 100 4.97461 100 11.1111V88.8889C100 95.0254 95.0254 100 88.8889 100ZM71.2717 86.1111H86.1111V55.6266C86.1111 42.7284 78.7995 36.4919 68.5868 36.4919C58.3695 36.4919 54.0695 44.4485 54.0695 44.4485V37.9629H39.7685V86.1111H54.0695V60.8362C54.0695 54.064 57.1869 50.034 63.1537 50.034C68.6386 50.034 71.2717 53.9066 71.2717 60.8362V86.1111ZM13.8889 22.7736C13.8889 27.68 17.8362 31.6583 22.7074 31.6583C27.5786 31.6583 31.5236 27.68 31.5236 22.7736C31.5236 17.8671 27.5786 13.8889 22.7074 13.8889C17.8362 13.8889 13.8889 17.8671 13.8889 22.7736ZM30.2352 86.1111H15.323V37.9629H30.2352V86.1111Z" />
</svg>
